{
  "accessors": [
    {
      "bufferView": 2,
      "componentType": 5126,
      "count": 3082,
      "max": [
        0.9070848226547241,
        10.4857177734375,
        0.7709870934486389
      ],
      "min": [
        -0.008958684280514717,
        9.950587272644043,
        -0.22491933405399323
      ],
      "type": "VEC3"
    },
    {
      "bufferView": 2,
      "byteOffset": 36984,
      "componentType": 5126,
      "count": 3082,
      "max": [
        0.9965295195579529,
        0.9982650876045227,
        0.804067850112915
      ],
      "min": [
        -0.88587486743927,
        -0.9612021446228027,
        -0.9998748898506165
      ],
      "type": "VEC3"
    },
    {
      "bufferView": 3,
      "componentType": 5126,
      "count": 3082,
      "max": [
        0.615686297416687,
        0.20392157137393951,
        0.125490203499794,
        1.0
      ],
      "min": [
        0.0117647061124444,
        0.007843137718737125,
        0.007843137718737125,
        0.0
      ],
      "type": "VEC4"
    },
    {
      "bufferView": 1,
      "componentType": 5126,
      "count": 3082,
      "max": [
        0.013227327726781368,
        0.1434962898492813
      ],
      "min": [
        -0.013227327726781368,
        0.0
      ],
      "type": "VEC2"
    },
    {
      "bufferView": 1,
      "byteOffset": 24656,
      "componentType": 5126,
      "count": 3082,
      "max": [
        1.0,
        0.9772727489471436
      ],
      "min": [
        -1.0,
        0.0
      ],
      "type": "VEC2"
    },
    {
      "bufferView": 1,
      "byteOffset": 49312,
      "componentType": 5126,
      "count": 3082,
      "max": [
        0.8884958028793335,
        0.0
      ],
      "min": [
        0.0,
        0.0
      ],
      "type": "VEC2"
    },
    {
      "bufferView": 0,
      "componentType": 5125,
      "count": 8472,
      "type": "SCALAR"
    },
    {
      "bufferView": 2,
      "byteOffset": 73968,
      "componentType": 5126,
      "count": 65533,
      "max": [
        4.245484352111816,
        15.101162910461426,
        3.8121025562286377
      ],
      "min": [
        -2.562556266784668,
        0.2344028800725937,
        -7.485682487487793
      ],
      "type": "VEC3"
    },
    {
      "bufferView": 2,
      "byteOffset": 860364,
      "componentType": 5126,
      "count": 65533,
      "max": [
        0.9999430775642395,
        0.9996005296707153,
        0.9999925494194031
      ],
      "min": [
        -0.9999246001243591,
        -0.9999362230300903,
        -0.9999960064888
      ],
      "type": "VEC3"
    },
    {
      "bufferView": 3,
      "byteOffset": 49312,
      "componentType": 5126,
      "count": 65533,
      "max": [
        0.9058823585510254,
        0.8392156958580017,
        0.8235294222831726,
        1.0
      ],
      "min": [
        0.0,
        0.0,
        0.0,
        0.0
      ],
      "type": "VEC4"
    },
    {
      "bufferView": 1,
      "byteOffset": 73968,
      "componentType": 5126,
      "count": 65533,
      "max": [
        0.9066071510314941,
        5.056550025939941
      ],
      "min": [
        -0.16845765709877014,
        0.0
      ],
      "type": "VEC2"
    },
    {
      "bufferView": 1,
      "byteOffset": 598232,
      "componentType": 5126,
      "count": 65533,
      "max": [
        1.0,
        0.9955357313156128
      ],
      "min": [
        -1.0,
        0.0
      ],
      "type": "VEC2"
    },
    {
      "bufferView": 1,
      "byteOffset": 1122496,
      "componentType": 5126,
      "count": 65533,
      "max": [
        0.9898099899291992,
        0.0
      ],
      "min": [
        0.0,
        0.0
      ],
      "type": "VEC2"
    },
    {
      "bufferView": 0,
      "byteOffset": 33888,
      "componentType": 5125,
      "count": 146076,
      "type": "SCALAR"
    },
    {
      "bufferView": 2,
      "byteOffset": 1646760,
      "componentType": 5126,
      "count": 65534,
      "max": [
        4.274967193603516,
        14.881804466247559,
        3.628635883331299
      ],
      "min": [
        -3.9478702545166016,
        -0.1966983526945114,
        -6.940819263458252
      ],
      "type": "VEC3"
    },
    {
      "bufferView": 2,
      "byteOffset": 2433168,
      "componentType": 5126,
      "count": 65534,
      "max": [
        0.9999926686286926,
        0.9999445676803589,
        0.9999634027481079
      ],
      "min": [
        -0.9999950528144836,
        -0.9999455809593201,
        -0.9998500943183899
      ],
      "type": "VEC3"
    },
    {
      "bufferView": 3,
      "byteOffset": 1097840,
      "componentType": 5126,
      "count": 65534,
      "max": [
        1.0,
        1.0,
        1.0,
        1.0
      ],
      "min": [
        0.0,
        0.0,
        0.0,
        0.0
      ],
      "type": "VEC4"
    },
    {
      "bufferView": 1,
      "byteOffset": 1646760,
      "componentType": 5126,
      "count": 65534,
      "max": [
        0.8456760048866272,
        4.019323348999023
      ],
      "min": [
        -0.0952036902308464,
        0.0
      ],
      "type": "VEC2"
    },
    {
      "bufferView": 1,
      "byteOffset": 2171032,
      "componentType": 5126,
      "count": 65534,
      "max": [
        1.0,
        0.9949748516082764
      ],
      "min": [
        -1.0,
        0.0
      ],
      "type": "VEC2"
    },
    {
      "bufferView": 1,
      "byteOffset": 2695304,
      "componentType": 5126,
      "count": 65534,
      "max": [
        0.7121161222457886,
        0.0
      ],
      "min": [
        0.0,
        0.0
      ],
      "type": "VEC2"
    },
    {
      "bufferView": 0,
      "byteOffset": 618192,
      "componentType": 5125,
      "count": 144531,
      "type": "SCALAR"
    },
    {
      "bufferView": 2,
      "byteOffset": 3219576,
      "componentType": 5126,
      "count": 63301,
      "max": [
        2.441678047180176,
        15.310953140258789,
        3.6570732593536377
      ],
      "min": [
        -2.536017417907715,
        1.3551539182662964,
        -2.2922956943511963
      ],
      "type": "VEC3"
    },
    {
      "bufferView": 2,
      "byteOffset": 3979188,
      "componentType": 5126,
      "count": 63301,
      "max": [
        0.9999837279319763,
        0.9999532699584961,
        0.9999871850013733
      ],
      "min": [
        -0.999995768070221,
        -0.9999583959579468,
        -0.9999290704727173
      ],
      "type": "VEC3"
    },
    {
      "bufferView": 3,
      "byteOffset": 2146384,
      "componentType": 5126,
      "count": 63301,
      "max": [
        0.95686274766922,
        0.7490196228027344,
        0.7882353067398071,
        1.0
      ],
      "min": [
        0.0,
        0.0,
        0.0,
        0.0
      ],
      "type": "VEC4"
    },
    {
      "bufferView": 1,
      "byteOffset": 3219576,
      "componentType": 5126,
      "count": 63301,
      "max": [
        0.6686461567878723,
        3.0290534496307373
      ],
      "min": [
        -0.1989709585905075,
        0.0
      ],
      "type": "VEC2"
    },
    {
      "bufferView": 1,
      "byteOffset": 3725984,
      "componentType": 5126,
      "count": 63301,
      "max": [
        1.0,
        0.9930070042610168
      ],
      "min": [
        -1.0,
        0.0
      ],
      "type": "VEC2"
    },
    {
      "bufferView": 1,
      "byteOffset": 4232392,
      "componentType": 5126,
      "count": 63301,
      "max": [
        0.922727108001709,
        0.0
      ],
      "min": [
        0.0,
        0.0
      ],
      "type": "VEC2"
    },
    {
      "bufferView": 0,
      "byteOffset": 1196316,
      "componentType": 5125,
      "count": 147570,
      "type": "SCALAR"
    },
    {
      "bufferView": 2,
      "byteOffset": 4738800,
      "componentType": 5126,
      "count": 11715,
      "max": [
        9.227173805236816,
        13.731100082397461,
        12.183460235595703
      ],
      "min": [
        -7.173769950866699,
        0.4191846251487732,
        -12.967884063720703
      ],
      "type": "VEC3"
    },
    {
      "bufferView": 2,
      "byteOffset": 4879380,
      "componentType": 5126,
      "count": 11715,
      "max": [
        0.9999931454658508,
        0.9951854348182678,
        0.9830198287963867
      ],
      "min": [
        -0.9997608661651611,
        -0.9923348426818848,
        -0.9948368072509766
      ],
      "type": "VEC3"
    },
    {
      "bufferView": 3,
      "byteOffset": 3159200,
      "componentType": 5126,
      "count": 11715,
      "max": [
        0.9098039269447327,
        0.9098039269447327,
        0.9098039269447327,
        1.0
      ],
      "min": [
        0.0,
        0.0,
        0.0,
        0.0
      ],
      "type": "VEC4"
    },
    {
      "bufferView": 1,
      "byteOffset": 4738800,
      "componentType": 5126,
      "count": 11715,
      "max": [
        0.4024850130081177,
        10.873978614807129
      ],
      "min": [
        -0.4024850130081177,
        0.0
      ],
      "type": "VEC2"
    },
    {
      "bufferView": 1,
      "byteOffset": 4832520,
      "componentType": 5126,
      "count": 11715,
      "max": [
        1.0,
        0.9974874258041382
      ],
      "min": [
        -1.0,
        0.0
      ],
      "type": "VEC2"
    },
    {
      "bufferView": 1,
      "byteOffset": 4926240,
      "componentType": 5126,
      "count": 11715,
      "max": [
        0.979023814201355,
        0.0
      ],
      "min": [
        0.0,
        0.0
      ],
      "type": "VEC2"
    },
    {
      "bufferView": 0,
      "byteOffset": 1786596,
      "componentType": 5125,
      "count": 22047,
      "type": "SCALAR"
    },
    {
      "bufferView": 2,
      "byteOffset": 5019960,
      "componentType": 5126,
      "count": 973,
      "max": [
        7.3832268714904785,
        14.452740669250488,
        10.315982818603516
      ],
      "min": [
        -3.93007493019104,
        5.821357727050781,
        -9.675505638122559
      ],
      "type": "VEC3"
    },
    {
      "bufferView": 2,
      "byteOffset": 5031636,
      "componentType": 5126,
      "count": 973,
      "max": [
        0.9999237656593323,
        0.9835471510887146,
        0.6351377367973328
      ],
      "min": [
        -0.9166387319564819,
        -0.4411343038082123,
        -0.9518011808395386
      ],
      "type": "VEC3"
    },
    {
      "bufferView": 3,
      "byteOffset": 3346640,
      "componentType": 5126,
      "count": 973,
      "max": [
        0.9686274528503418,
        0.843137264251709,
        1.0,
        1.0
      ],
      "min": [
        0.20392157137393951,
        0.20392157137393951,
        0.20392157137393951,
        1.0
      ],
      "type": "VEC4"
    },
    {
      "bufferView": 1,
      "byteOffset": 5019960,
      "componentType": 5126,
      "count": 973,
      "max": [
        0.06232718005776405,
        0.38158777356147766
      ],
      "min": [
        -0.06232718005776405,
        0.0
      ],
      "type": "VEC2"
    },
    {
      "bufferView": 1,
      "byteOffset": 5027744,
      "componentType": 5126,
      "count": 973,
      "max": [
        1.0,
        0.970588207244873
      ],
      "min": [
        -1.0,
        0.0
      ],
      "type": "VEC2"
    },
    {
      "bufferView": 1,
      "byteOffset": 5035528,
      "componentType": 5126,
      "count": 973,
      "max": [
        0.9510416984558105,
        0.0
      ],
      "min": [
        0.0,
        0.0
      ],
      "type": "VEC2"
    },
    {
      "bufferView": 0,
      "byteOffset": 1874784,
      "componentType": 5125,
      "count": 2703,
      "type": "SCALAR"
    },
    {
      "bufferView": 2,
      "byteOffset": 5043312,
      "componentType": 5126,
      "count": 45907,
      "max": [
        8.37033462524414,
        1.7263829708099365,
        9.647897720336914
      ],
      "min": [
        -10.061034202575684,
        -1.8144811391830444,
        -11.593247413635254
      ],
      "type": "VEC3"
    },
    {
      "bufferView": 2,
      "byteOffset": 5594196,
      "componentType": 5126,
      "count": 45907,
      "max": [
        0.9991216659545898,
        0.9999983906745911,
        0.9979216456413269
      ],
      "min": [
        -0.9992027282714844,
        -0.9999970197677612,
        -0.9991891980171204
      ],
      "type": "VEC3"
    },
    {
      "bufferView": 3,
      "byteOffset": 3362208,
      "componentType": 5126,
      "count": 45907,
      "max": [
        0.8156862854957581,
        0.7058823704719543,
        0.5960784554481506,
        1.0
      ],
      "min": [
        0.5921568870544434,
        0.5176470875740051,
        0.3960784375667572,
        1.0
      ],
      "type": "VEC4"
    },
    {
      "bufferView": 1,
      "byteOffset": 5043312,
      "componentType": 5126,
      "count": 45907,
      "max": [
        0.08633111417293549,
        0.43034613132476807
      ],
      "min": [
        -0.08633111417293549,
        0.0
      ],
      "type": "VEC2"
    },
    {
      "bufferView": 1,
      "byteOffset": 5410568,
      "componentType": 5126,
      "count": 45907,
      "max": [
        1.0,
        0.9599999785423279
      ],
      "min": [
        -1.0,
        0.0
      ],
      "type": "VEC2"
    },
    {
      "bufferView": 1,
      "byteOffset": 5777824,
      "componentType": 5126,
      "count": 45907,
      "max": [
        0.976808488368988,
        0.0
      ],
      "min": [
        0.0,
        0.0
      ],
      "type": "VEC2"
    },
    {
      "bufferView": 0,
      "byteOffset": 1885596,
      "componentType": 5125,
      "count": 53787,
      "type": "SCALAR"
    }
  ],
  "asset": {
    "extras": {
      "author": "Nick Ladd (https://sketchfab.com/Nicktheladd)",
      "license": "SKETCHFAB Editorial (https://sketchfab.com/licenses)",
      "source": "https://sketchfab.com/3d-models/quill-samurai-c863df6299f14646ba3b63a3de4bb5f2",
      "title": "Quill - Samurai"
    },
    "generator": "Sketchfab-12.66.0",
    "version": "2.0"
  },
  "bufferViews": [
    {
      "buffer": 0,
      "byteLength": 2100744,
      "name": "floatBufferViews",
      "target": 34963
    },
    {
      "buffer": 0,
      "byteLength": 6145080,
      "byteOffset": 2100744,
      "byteStride": 8,
      "name": "floatBufferViews",
      "target": 34962
    },
    {
      "buffer": 0,
      "byteLength": 6145080,
      "byteOffset": 8245824,
      "byteStride": 12,
      "name": "floatBufferViews",
      "target": 34962
    },
    {
      "buffer": 0,
      "byteLength": 4096720,
      "byteOffset": 14390904,
      "byteStride": 16,
      "name": "floatBufferViews",
      "target": 34962
    }
  ],
  "buffers": [
    {
      "byteLength": 18487624,
      "uri": "scene.bin"
    }
  ],
  "extensionsUsed": [
    "KHR_materials_unlit"
  ],
  "materials": [
    {
      "doubleSided": true,
      "extensions": {
        "KHR_materials_unlit": {}
      },
      "name": "Scene_-_Root",
      "pbrMetallicRoughness": {
        "metallicFactor": 0.0
      }
    }
  ],
  "meshes": [
    {
      "name": "NewLayer0__0",
      "primitives": [
        {
          "attributes": {
            "COLOR_0": 2,
            "NORMAL": 1,
            "POSITION": 0,
            "TEXCOORD_0": 3,
            "TEXCOORD_1": 4,
            "TEXCOORD_2": 5
          },
          "indices": 6,
          "material": 0,
          "mode": 4
        }
      ]
    },
    {
      "name": "Samurai__0",
      "primitives": [
        {
          "attributes": {
            "COLOR_0": 9,
            "NORMAL": 8,
            "POSITION": 7,
            "TEXCOORD_0": 10,
            "TEXCOORD_1": 11,
            "TEXCOORD_2": 12
          },
          "indices": 13,
          "material": 0,
          "mode": 4
        }
      ]
    },
    {
      "name": "Samurai__0",
      "primitives": [
        {
          "attributes": {
            "COLOR_0": 16,
            "NORMAL": 15,
            "POSITION": 14,
            "TEXCOORD_0": 17,
            "TEXCOORD_1": 18,
            "TEXCOORD_2": 19
          },
          "indices": 20,
          "material": 0,
          "mode": 4
        }
      ]
    },
    {
      "name": "Samurai__0",
      "primitives": [
        {
          "attributes": {
            "COLOR_0": 23,
            "NORMAL": 22,
            "POSITION": 21,
            "TEXCOORD_0": 24,
            "TEXCOORD_1": 25,
            "TEXCOORD_2": 26
          },
          "indices": 27,
          "material": 0,
          "mode": 4
        }
      ]
    },
    {
      "name": "clouds__0",
      "primitives": [
        {
          "attributes": {
            "COLOR_0": 30,
            "NORMAL": 29,
            "POSITION": 28,
            "TEXCOORD_0": 31,
            "TEXCOORD_1": 32,
            "TEXCOORD_2": 33
          },
          "indices": 34,
          "material": 0,
          "mode": 4
        }
      ]
    },
    {
      "name": "Pedals__0",
      "primitives": [
        {
          "attributes": {
            "COLOR_0": 37,
            "NORMAL": 36,
            "POSITION": 35,
            "TEXCOORD_0": 38,
            "TEXCOORD_1": 39,
            "TEXCOORD_2": 40
          },
          "indices": 41,
          "material": 0,
          "mode": 4
        }
      ]
    },
    {
      "name": "Background__0",
      "primitives": [
        {
          "attributes": {
            "COLOR_0": 44,
            "NORMAL": 43,
            "POSITION": 42,
            "TEXCOORD_0": 45,
            "TEXCOORD_1": 46,
            "TEXCOORD_2": 47
          },
          "indices": 48,
          "material": 0,
          "mode": 4
        }
      ]
    }
  ],
  "nodes": [
    {
      "children": [
        1
      ],
      "matrix": [
        0.17341792910179343,
        -0.012145960782039555,
        -0.001884751149675015,
        0.0,
        -0.001958498884257684,
        -0.0009875986577455964,
        -0.17383913137265505,
        0.0,
        0.012134287488607676,
        0.17342535897431066,
        -0.0011219547904894492,
        0.0,
        -0.3310062885284424,
        0.08454241603612868,
        1.450645923614502,
        1.0
      ],
      "name": "Sketchfab_model"
    },
    {
      "children": [
        2
      ],
      "matrix": [
        1.0,
        0.0,
        0.0,
        0.0,
        0.0,
        0.0,
        1.0,
        0.0,
        0.0,
        -1.0,
        0.0,
        0.0,
        0.0,
        0.0,
        0.0,
        1.0
      ],
      "name": "f63be16593de46b6b913bc706a1c109c.fbx"
    },
    {
      "children": [
        3
      ],
      "name": "RootNode"
    },
    {
      "children": [
        4
      ],
      "name": "BakedMesh"
    },
    {
      "children": [
        5
      ],
      "name": "Root"
    },
    {
      "children": [
        6,
        8,
        12,
        14,
        16
      ],
      "name": "Samurai"
    },
    {
      "children": [
        7
      ],
      "name": "NewLayer0"
    },
    {
      "mesh": 0,
      "name": "NewLayer0__0"
    },
    {
      "children": [
        9,
        10,
        11
      ],
      "name": "Samurai"
    },
    {
      "mesh": 1,
      "name": "Samurai__0"
    },
    {
      "mesh": 2,
      "name": "Samurai__0"
    },
    {
      "mesh": 3,
      "name": "Samurai__0"
    },
    {
      "children": [
        13
      ],
      "name": "clouds"
    },
    {
      "mesh": 4,
      "name": "clouds__0"
    },
    {
      "children": [
        15
      ],
      "name": "Pedals"
    },
    {
      "mesh": 5,
      "name": "Pedals__0"
    },
    {
      "children": [
        17
      ],
      "name": "Background"
    },
    {
      "mesh": 6,
      "name": "Background__0"
    }
  ],
  "scene": 0,
  "scenes": [
    {
      "name": "Sketchfab_Scene",
      "nodes": [
        0
      ]
    }
  ]
}
